<?xml version="1.0" encoding="utf-8"?>
<svg fill="#000000" height="800px" width="800px" version="1.1" id="Icons" xmlns="http://www.w3.org/2000/svg" xmlns:xlink="http://www.w3.org/1999/xlink" 
	 viewBox="0 0 32 32" xml:space="preserve">
<g>
	<circle cx="16" cy="16" r="2"/>
	<path d="M29.6,5.2C29.3,5,29,4.9,28.7,5.1c-4.3,1.4-8.7,0.3-12-2.8c-0.4-0.4-1-0.4-1.4,0c-3.3,3.1-7.7,4.2-12,2.8
		C3,4.9,2.7,5,2.4,5.2C2.2,5.4,2,5.7,2,6c0,15.7,6.9,20.9,13.6,23.9C15.7,30,15.9,30,16,30s0.3,0,0.4-0.1C23.1,26.9,30,21.7,30,6
		C30,5.7,29.8,5.4,29.6,5.2z M22.3,17.5c-0.1,0.2-0.3,0.4-0.5,0.4c-0.5-0.1-1.1,0.2-1.3,0.7c-0.3,0.5-0.2,1.1,0.1,1.5
		c0.2,0.2,0.1,0.5-0.1,0.7c-0.7,0.7-1.7,1.2-2.6,1.5c0,0-0.1,0-0.1,0c-0.2,0-0.4-0.1-0.5-0.3c-0.2-0.5-0.7-0.8-1.2-0.8
		s-1,0.3-1.2,0.8c-0.1,0.2-0.4,0.4-0.6,0.3c-1-0.3-1.9-0.8-2.6-1.5c-0.2-0.2-0.2-0.5-0.1-0.7c0.3-0.4,0.4-1,0.1-1.5
		c-0.3-0.5-0.8-0.7-1.3-0.7c-0.3,0-0.5-0.1-0.5-0.4c-0.1-0.5-0.2-1-0.2-1.5s0.1-1,0.2-1.5c0.1-0.2,0.3-0.4,0.5-0.4
		c0.5,0.1,1.1-0.2,1.3-0.7c0.3-0.5,0.2-1.1-0.1-1.5c-0.2-0.2-0.1-0.5,0.1-0.7c0.7-0.7,1.7-1.2,2.6-1.5c0.2-0.1,0.5,0.1,0.6,0.3
		c0.2,0.5,0.7,0.8,1.2,0.8s1-0.3,1.2-0.8c0.1-0.2,0.4-0.4,0.6-0.3c1,0.3,1.9,0.8,2.6,1.5c0.2,0.2,0.2,0.5,0.1,0.7
		c-0.3,0.4-0.4,1-0.1,1.5c0.3,0.5,0.8,0.7,1.3,0.7c0.3,0,0.5,0.1,0.5,0.4c0.1,0.5,0.2,1,0.2,1.5S22.4,17,22.3,17.5z"/>
</g>
</svg>