<svg xmlns="http://www.w3.org/2000/svg" xmlns:xlink="http://www.w3.org/1999/xlink" width="58.036" height="58.168" viewBox="0 0 58.036 58.168">
  <defs>
    <clipPath id="clip-path">
      <rect width="58.036" height="58.168" fill="none"/>
    </clipPath>
  </defs>
  <g id="Symbol_93_1" data-name="Symbol 93 – 1" transform="translate(0 0)" clip-path="url(#clip-path)">
    <g id="Gruppe_172" data-name="Gruppe 172">
      <path id="Pfad_321" data-name="Pfad 321" d="M661.368,52.853l7.882-7.882a11.637,11.637,0,0,1,4.656-2.82,9.593,9.593,0,0,0,3.821-2.337,9.562,9.562,0,0,0-.224-13.735L676.355,25l-2.087,6.692a2.8,2.8,0,1,1-5.354-1.67l2.076-6.652-1.576.256a9.495,9.495,0,0,0-4.75,2.235,9.592,9.592,0,0,0-3.2,8.257,11.207,11.207,0,0,1-3.292,9.184l-3.179,3.177-5.773-5.773L651,38.93,647.5,35.437a27.045,27.045,0,0,1,9.941-8.25l1.757-.779-1.658-.973a12.421,12.421,0,0,0-15.057,2.028L632.212,37.738l-.691.691.684.7c.6.612.385,1.852-.47,2.707s-2.095,1.07-2.707.47l-.7-.684L623,46.95l9.989,9.989,5.327-5.327-.678-.7c-.6-.613-.378-1.851.474-2.7s2.09-1.07,2.7-.474l.7.678,1.67-1.67,5.773,5.773-7.42,7.419a11.624,11.624,0,0,1-4.654,2.821,9.559,9.559,0,0,0-3.6,16.072l1.148,1.078,2.088-6.691a2.8,2.8,0,0,1,5.481.833,2.813,2.813,0,0,1-.129.837L639.8,81.538l1.575-.256a9.494,9.494,0,0,0,4.75-2.235,9.592,9.592,0,0,0,3.2-8.257,11.206,11.206,0,0,1,3.292-9.184l2.715-2.715L673.749,77.31a4.27,4.27,0,1,0,6.039-6.039Zm-1.8-8.156a13.172,13.172,0,0,0,3.858-10.8,7.615,7.615,0,0,1,2.54-6.555,7.5,7.5,0,0,1,2.124-1.31l-1.061,3.4a4.778,4.778,0,1,0,9.121,2.846l1.09-3.493A7.586,7.586,0,0,1,673.3,40.271a13.635,13.635,0,0,0-5.448,3.3l-7.882,7.882-3.582-3.583ZM643.883,28.859A10.506,10.506,0,0,1,654.8,26.323a29.849,29.849,0,0,0-8.708,7.693l-3.683-3.683,1.475-1.474Zm-2.87,2.87,7.193,7.2-6.56,6.56-7.2-7.2,6.564-6.564ZM625.791,46.95l2.546-2.546,7.2,7.2-2.546,2.546Zm10.926-.134a4.826,4.826,0,0,0-1.21,1.967l-4.343-4.344a4.845,4.845,0,0,0,1.967-1.21,4.785,4.785,0,0,0,1.271-2.191l4.506,4.506a4.772,4.772,0,0,0-2.192,1.272Zm14.5,13.4a13.168,13.168,0,0,0-3.858,10.8,7.614,7.614,0,0,1-2.541,6.555,7.46,7.46,0,0,1-2.124,1.31l1.061-3.4a4.771,4.771,0,0,0-3.138-5.982,4.777,4.777,0,0,0-5.983,3.137l-1.09,3.493a7.59,7.59,0,0,1,3.939-11.485,13.619,13.619,0,0,0,5.446-3.3l7.419-7.419,3.583,3.582Zm27.173,15.7a2.3,2.3,0,0,1-3.247,0L644.579,45.349l3.247-3.248,30.565,30.566a2.3,2.3,0,0,1,0,3.247Zm0,0" transform="translate(-623 -23.37)" fill="#fff" stroke="#fff" stroke-width="0.4"/>
    </g>
  </g>
</svg>
