<svg xmlns="http://www.w3.org/2000/svg" width="24" height="24" viewBox="0 0 24.958 28.079"><g stroke-width=".265"><path fill="#010202" d="M14.161 28.079c3.72 0 7.2-1.32 9.837-3.72l.96-.96-4.558-4.56-.96 1.2c-1.44 1.32-3.24 2.04-5.279 2.04-4.559 0-7.919-3.24-7.919-8.039 0-4.8 3.238-7.919 7.919-7.919 2.04 0 3.84.6 5.278 2.04L20.4 9l4.319-4.318-.96-.96c-2.76-2.281-5.999-3.72-9.6-3.72C6.001-.119 0 5.761 0 14.036c.003 7.803 6.123 14.041 14.16 14.041z" class="st1"/><path fill="#e52421" d="M9.123 14.04c0 2.64 2.159 4.678 4.678 4.678 2.64 0 4.678-2.16 4.678-4.678 0-2.64-2.16-4.678-4.678-4.678-2.519 0-4.678 2.04-4.678 4.678z" class="st2"/></g></svg>